<?xml version="1.0" encoding="UTF-8" standalone="no"?>
<!-- Created with Inkscape (http://www.inkscape.org/) -->

<svg
   xmlns:dc="http://purl.org/dc/elements/1.1/"
   xmlns:cc="http://creativecommons.org/ns#"
   xmlns:rdf="http://www.w3.org/1999/02/22-rdf-syntax-ns#"
   xmlns:svg="http://www.w3.org/2000/svg"
   xmlns="http://www.w3.org/2000/svg"
   xmlns:sodipodi="http://sodipodi.sourceforge.net/DTD/sodipodi-0.dtd"
   xmlns:inkscape="http://www.inkscape.org/namespaces/inkscape"
   width="346"
   height="75"
   viewBox="0 0 345.9998 74.999958"
   id="svg3630"
   version="1.1"
   inkscape:version="0.91 r13725"
   sodipodi:docname="horizontal_logo.svg">
  <defs
     id="defs3632" />
  <sodipodi:namedview
     id="base"
     pagecolor="#ffffff"
     bordercolor="#666666"
     borderopacity="1.0"
     inkscape:pageopacity="0.0"
     inkscape:pageshadow="2"
     inkscape:zoom="1.979899"
     inkscape:cx="336.44141"
     inkscape:cy="158.25198"
     inkscape:document-units="px"
     inkscape:current-layer="layer1"
     showgrid="false"
     inkscape:window-width="2560"
     inkscape:window-height="1387"
     inkscape:window-x="1920"
     inkscape:window-y="27"
     inkscape:window-maximized="1"
     units="px" />
  <metadata
     id="metadata3635">
    <rdf:RDF>
      <cc:Work
         rdf:about="">
        <dc:format>image/svg+xml</dc:format>
        <dc:type
           rdf:resource="http://purl.org/dc/dcmitype/StillImage" />
        <dc:title></dc:title>
      </cc:Work>
    </rdf:RDF>
  </metadata>
  <g
     inkscape:label="Layer 1"
     inkscape:groupmode="layer"
     id="layer1"
     transform="translate(0,-977.3624)">
    <g
       id="g3481"
       transform="matrix(0.84326434,0,0,-0.84326434,40.76847,979.25934)">
      <path
         d="M 0,0 C -25.408,0 -39.524,-6.843 -39.524,-6.843 -42.63,-73.997 0,-84.441 0,-84.441 c 0,0 42.63,10.444 39.525,77.598 C 39.525,-6.843 25.409,0 0,0 m 0,-5.082 c 17.561,0 29.495,-3.436 34.563,-5.247 C 34.88,-23.483 33.348,-35.204 30,-45.213 27.155,-53.718 22.994,-61.014 17.634,-66.9 10.428,-74.811 2.894,-78.077 -0.003,-79.113 c -2.823,1.008 -10.128,4.167 -17.208,11.755 -5.47,5.862 -9.723,13.164 -12.639,21.702 -3.452,10.107 -5.034,21.978 -4.713,35.326 5.078,1.814 17.01,5.248 34.563,5.248"
         style="fill:#003060;fill-opacity:1;fill-rule:nonzero;stroke:none"
         id="path3483"
         inkscape:connector-curvature="0" />
    </g>
    <g
       id="g3485"
       transform="matrix(0.84326434,0,0,-0.84326434,28.483458,992.61479)">
      <path
         d="M 0,0 -1.229,2.833 -2.459,0 -5.521,-0.296 -3.21,-2.34 -3.879,-5.351 -1.229,-3.778 1.421,-5.351 0.758,-2.34 3.063,-0.296 0,0 Z"
         style="fill:#003060;fill-opacity:1;fill-rule:nonzero;stroke:none"
         id="path3487"
         inkscape:connector-curvature="0" />
    </g>
    <g
       id="g3489"
       transform="matrix(0.84326434,0,0,-0.84326434,37.351813,998.47168)">
      <path
         d="M 0,0 4.17,2.473 8.339,0 7.295,4.737 10.921,7.952 6.102,8.417 4.17,12.874 2.234,8.417 -2.582,7.952 1.055,4.737 0,0 Z"
         style="fill:#003060;fill-opacity:1;fill-rule:nonzero;stroke:none"
         id="path3491"
         inkscape:connector-curvature="0" />
    </g>
    <g
       id="g3493"
       transform="matrix(0.84326434,0,0,-0.84326434,51.855453,997.12735)">
      <path
         d="M 0,0 2.65,1.573 5.3,0 4.637,3.011 6.942,5.055 3.879,5.351 2.65,8.184 1.42,5.351 -1.642,5.055 0.669,3.011 0,0 Z"
         style="fill:#003060;fill-opacity:1;fill-rule:nonzero;stroke:none"
         id="path3495"
         inkscape:connector-curvature="0" />
    </g>
    <g
       id="g3497"
       transform="matrix(0.84326434,0,0,-0.84326434,27.995457,1034.4356)">
      <path
         d="m 0,0 c 5.967,-6.395 12.056,-9.427 15.144,-10.663 1.66,0.664 4.175,1.848 7.063,3.774 L -10.849,17.494 C -8.144,10.701 -4.504,4.827 0,0"
         style="fill:#003060;fill-opacity:1;fill-rule:nonzero;stroke:none"
         id="path3499"
         inkscape:connector-curvature="0" />
    </g>
    <g
       id="g3501"
       transform="matrix(0.84326434,0,0,-0.84326434,48.572295,1038.9258)">
      <path
         d="m 0,0 c 2.029,1.539 4.172,3.43 6.292,5.758 4.653,5.109 8.35,11.369 11.03,18.608 L -8.83,6.521 0,0 Z"
         style="fill:#003060;fill-opacity:1;fill-rule:nonzero;stroke:none"
         id="path3503"
         inkscape:connector-curvature="0" />
    </g>
    <g
       id="g3505"
       transform="matrix(0.84326434,0,0,-0.84326434,45.39673,1008.3518)">
      <path
         d="M 0,0 -1.638,-0.567 -3.842,1.544 0,0 Z m 1.507,-10.396 -3.497,6.367 c 5.984,1.314 5.912,-1.903 5.912,-1.903 0,0 4.588,4.952 -2.621,6.001 L 1.105,0.456 c 0,0 -0.379,1.793 -3.424,2.605 l 10e-4,10e-4 c -2.78,0.799 -4.728,0.546 -5.768,0.264 -0.01,-10e-4 -0.019,-10e-4 -0.03,-0.003 0,0 -0.228,-0.044 -0.586,-0.2 C -8.874,3.054 -8.963,3.005 -8.963,3.005 l 0.006,-0.002 c -0.922,-0.468 -2.411,-1.582 -3.492,-4.166 l -0.002,0.007 -3.873,-8.424 -19.879,14.461 c 0.705,-4.982 1.764,-9.65 3.164,-13.985 l 25.79,-19.018 29.701,20.251 c 1.231,4.058 2.17,8.4 2.809,13.006 L 1.507,-10.396 Z"
         style="fill:#003060;fill-opacity:1;fill-rule:nonzero;stroke:none"
         id="path3507"
         inkscape:connector-curvature="0" />
    </g>
    <g
       id="g3509"
       transform="matrix(0.84326434,0,0,-0.84326434,106.90586,1004.6148)">
      <path
         d="m 0,0 c -0.028,0.873 -0.155,1.536 -0.38,1.987 -0.226,0.45 -0.649,0.775 -1.269,0.972 -0.62,0.197 -1.501,0.303 -2.642,0.317 -1.141,0.014 -2.642,0.022 -4.503,0.022 -2.113,0 -3.819,-0.022 -5.115,-0.064 -1.297,-0.042 -2.311,-0.247 -3.044,-0.613 -0.733,-0.367 -1.226,-0.979 -1.48,-1.839 -0.253,-0.86 -0.38,-2.107 -0.38,-3.742 0,-2.086 0.063,-3.699 0.19,-4.84 0.127,-1.142 0.507,-1.987 1.142,-2.537 0.634,-0.549 1.613,-0.874 2.938,-0.972 1.324,-0.099 3.17,-0.148 5.538,-0.148 l 4.439,0 c 1.184,0 2.121,0.112 2.812,0.338 0.69,0.225 1.183,0.613 1.479,1.163 0.296,0.549 0.444,1.374 0.444,2.473 l 8.455,0 c 0,-0.226 0.007,-0.43 0.022,-0.613 0.014,-0.184 0.021,-0.388 0.021,-0.613 0,-1.437 -0.092,-2.706 -0.275,-3.805 -0.184,-1.099 -0.501,-2.029 -0.951,-2.79 -0.451,-0.761 -1.057,-1.368 -1.818,-1.818 -0.761,-0.451 -1.706,-0.733 -2.833,-0.846 -1.832,-0.197 -3.558,-0.345 -5.179,-0.444 -1.62,-0.098 -3.107,-0.148 -4.46,-0.148 -4.425,0 -8.554,0.127 -12.387,0.381 -1.494,0.084 -2.762,0.408 -3.805,0.972 -1.043,0.564 -1.888,1.388 -2.536,2.473 -0.649,1.085 -1.121,2.445 -1.417,4.08 -0.296,1.634 -0.444,3.594 -0.444,5.877 0,1.437 0.014,2.754 0.043,3.953 0.027,1.197 0.133,2.296 0.317,3.297 0.183,1 0.465,1.916 0.845,2.748 0.381,0.831 0.923,1.586 1.628,2.262 0.704,0.676 1.528,1.198 2.473,1.564 0.944,0.366 2.05,0.634 3.319,0.803 1.268,0.17 2.706,0.275 4.312,0.318 1.606,0.042 3.41,0.063 5.412,0.063 3.466,0 6.32,-0.071 8.561,-0.211 C 1.712,9.878 3.481,9.484 4.777,8.836 6.074,8.187 6.976,7.172 7.483,5.792 7.99,4.411 8.258,2.48 8.286,0 L 0,0 Z"
         style="fill:#003060;fill-opacity:1;fill-rule:nonzero;stroke:none"
         id="path3511"
         inkscape:connector-curvature="0" />
    </g>
    <g
       id="g3513"
       transform="matrix(0.84326434,0,0,-0.84326434,140.06411,1004.7931)">
      <path
         d="m 0,0 0,10.147 8.667,0 0,-28.199 -8.667,0 0,10.738 -19.405,0 0,-10.738 -8.667,0 0,28.199 8.667,0 L -19.405,0 0,0 Z"
         style="fill:#003060;fill-opacity:1;fill-rule:nonzero;stroke:none"
         id="path3515"
         inkscape:connector-curvature="0" />
    </g>
    <g
       id="g3517"
       transform="matrix(0.84326434,0,0,-0.84326434,172.3242,1010.7824)">
      <path
         d="M 0,0 -6.004,11.161 -12.092,0 0,0 Z m 3.128,-5.834 -18.221,0 -2.79,-5.116 -9.555,0 15.727,28.199 11.584,0 15.389,-28.199 -9.47,0 -2.664,5.116 z"
         style="fill:#003060;fill-opacity:1;fill-rule:nonzero;stroke:none"
         id="path3519"
         inkscape:connector-curvature="0" />
    </g>
    <g
       id="g3521"
       transform="matrix(0.84326434,0,0,-0.84326434,227.33978,996.23686)">
      <path
         d="m 0,0 0,-28.199 -8.117,0 0,21.477 -12.43,-21.477 -6.891,0 -12.26,21.477 0,-21.477 -8.117,0 0,28.199 13.655,0 10.358,-18.686 L -13.571,0 0,0 Z"
         style="fill:#003060;fill-opacity:1;fill-rule:nonzero;stroke:none"
         id="path3523"
         inkscape:connector-curvature="0" />
    </g>
    <g
       id="g3525"
       transform="matrix(0.84326434,0,0,-0.84326434,237.73175,1008.3226)">
      <path
         d="m 0,0 13.19,0 c 1.353,0 2.311,0.26 2.875,0.782 0.564,0.521 0.846,1.487 0.846,2.896 0,1.353 -0.254,2.332 -0.761,2.938 -0.508,0.606 -1.495,0.909 -2.96,0.909 L 0,7.525 0,0 Z m -8.667,-13.867 0,28.241 22.872,0 c 2.029,0 3.762,-0.12 5.2,-0.359 1.437,-0.24 2.649,-0.811 3.636,-1.712 0.986,-0.903 1.648,-2.037 1.987,-3.403 0.338,-1.368 0.507,-3.024 0.507,-4.968 0,-2.086 -0.155,-3.82 -0.465,-5.2 -0.31,-1.381 -0.867,-2.488 -1.67,-3.319 -0.803,-0.832 -1.881,-1.423 -3.234,-1.776 -1.353,-0.352 -3.072,-0.528 -5.158,-0.528 -0.31,0 -0.585,0.007 -0.824,0.021 -0.24,0.014 -0.515,0.021 -0.825,0.021 l -13.359,0 0,-7.018 -8.667,0 z"
         style="fill:#003060;fill-opacity:1;fill-rule:nonzero;stroke:none"
         id="path3527"
         inkscape:connector-curvature="0" />
    </g>
    <path
       d="m 268.52709,1020.0164 -7.30858,0 0,-23.77929 7.30858,0 0,23.77929 z"
       style="fill:#003060;fill-opacity:1;fill-rule:nonzero;stroke:none"
       id="path3529"
       inkscape:connector-curvature="0" />
    <g
       id="g3531"
       transform="matrix(0.84326434,0,0,-0.84326434,278.32346,1007.1104)">
      <path
         d="m 0,0 c 0,-1.437 0.021,-2.65 0.063,-3.636 0.043,-0.987 0.155,-1.804 0.339,-2.452 0.183,-0.648 0.465,-1.141 0.845,-1.48 0.381,-0.338 0.916,-0.592 1.607,-0.761 0.69,-0.169 1.549,-0.268 2.578,-0.295 1.029,-0.029 2.276,-0.043 3.742,-0.043 2.931,0 5.214,0.035 6.849,0.106 1.634,0.07 2.839,0.345 3.615,0.824 0.775,0.479 1.247,1.261 1.416,2.347 0.169,1.084 0.254,2.628 0.254,4.629 0,1.634 -0.078,2.924 -0.233,3.868 C 20.92,4.051 20.589,4.756 20.082,5.221 19.575,5.686 18.827,5.975 17.841,6.088 16.854,6.2 15.543,6.257 13.909,6.257 l -7.187,0 C 4.89,6.257 3.48,6.081 2.494,5.729 1.508,5.376 0.845,4.763 0.507,3.89 0.169,3.016 0,1.719 0,0 m -8.751,-3.889 c 0,2.677 0.035,4.981 0.105,6.912 0.07,1.93 0.339,3.558 0.804,4.883 0.465,1.324 1.197,2.374 2.198,3.149 1,0.775 2.431,1.332 4.291,1.67 1.269,0.226 3.572,0.36 6.912,0.402 3.34,0.042 7.716,0.063 13.127,0.063 1.776,0 3.312,-0.155 4.609,-0.465 1.295,-0.31 2.388,-0.796 3.276,-1.458 0.888,-0.663 1.586,-1.529 2.093,-2.6 0.507,-1.072 0.859,-2.368 1.057,-3.89 0.112,-0.789 0.176,-1.817 0.19,-3.086 0.014,-1.268 0.021,-2.748 0.021,-4.439 0,-2.058 -0.127,-3.798 -0.38,-5.221 -0.254,-1.424 -0.691,-2.615 -1.311,-3.573 -0.62,-0.958 -1.445,-1.705 -2.473,-2.24 -1.029,-0.536 -2.319,-0.937 -3.868,-1.205 -1.551,-0.268 -3.376,-0.437 -5.475,-0.507 -2.1,-0.07 -4.545,-0.106 -7.336,-0.106 -3.156,0 -5.862,0.092 -8.116,0.275 -2.256,0.183 -4.101,0.662 -5.539,1.437 -1.437,0.775 -2.494,1.945 -3.171,3.509 -0.676,1.564 -1.014,3.727 -1.014,6.49"
         style="fill:#003060;fill-opacity:1;fill-rule:nonzero;stroke:none"
         id="path3533"
         inkscape:connector-curvature="0" />
    </g>
    <g
       id="g3535"
       transform="matrix(0.84326434,0,0,-0.84326434,338.64047,996.23686)">
      <path
         d="m 0,0 0,-28.199 -13.655,0 -16.953,21.181 0,-21.181 -8.118,0 0,28.199 L -25.07,0 -8.117,-21.139 -8.117,0 0,0 Z"
         style="fill:#003060;fill-opacity:1;fill-rule:nonzero;stroke:none"
         id="path3537"
         inkscape:connector-curvature="0" />
    </g>
    <g
       id="g3539"
       transform="matrix(0.84326434,0,0,-0.84326434,289.62927,1025.9844)">
      <path
         d="M 0,0 C -0.124,0.08 -0.29,0.13 -0.499,0.15 -0.708,0.168 -0.97,0.178 -1.284,0.178 l -4.565,0 0,-2.439 4.351,0 c 0.076,0 0.138,-0.003 0.186,-0.007 0.048,-0.005 0.108,-0.008 0.185,-0.008 0.343,0 0.611,0.019 0.806,0.057 0.195,0.038 0.343,0.107 0.442,0.207 0.101,0.1 0.162,0.236 0.186,0.407 0.023,0.171 0.036,0.39 0.036,0.656 0,0.256 -0.027,0.459 -0.079,0.606 C 0.212,-0.195 0.124,-0.081 0,0"
         style="fill:#003060;fill-opacity:1;fill-rule:nonzero;stroke:none"
         id="path3541"
         inkscape:connector-curvature="0" />
    </g>
    <g
       id="g3543"
       transform="matrix(0.84326434,0,0,-0.84326434,184.21524,1028.7937)">
      <path
         d="M 0,0 4.079,0 2.054,3.766 0,0 Z"
         style="fill:#003060;fill-opacity:1;fill-rule:nonzero;stroke:none"
         id="path3545"
         inkscape:connector-curvature="0" />
    </g>
    <g
       id="g3547"
       transform="matrix(0.84326434,0,0,-0.84326434,154.26148,1026.0691)">
      <path
         d="M 0,0 C -0.171,0.157 -0.423,0.254 -0.756,0.293 -1.089,0.33 -1.531,0.35 -2.082,0.35 l -2.425,0 c -0.618,0 -1.094,-0.06 -1.427,-0.179 -0.333,-0.119 -0.556,-0.326 -0.67,-0.62 -0.115,-0.295 -0.172,-0.733 -0.172,-1.313 0,-0.485 0.007,-0.894 0.021,-1.226 0.015,-0.334 0.053,-0.609 0.115,-0.828 0.062,-0.219 0.157,-0.385 0.285,-0.499 0.129,-0.114 0.309,-0.2 0.542,-0.257 0.233,-0.057 0.524,-0.09 0.871,-0.1 0.347,-0.01 0.767,-0.014 1.262,-0.014 0.989,0 1.759,0.012 2.311,0.035 0.551,0.024 0.958,0.117 1.219,0.279 0.262,0.161 0.422,0.426 0.479,0.792 0.056,0.365 0.085,0.886 0.085,1.562 0,0.551 -0.026,0.986 -0.079,1.305 C 0.284,-0.395 0.172,-0.157 0,0"
         style="fill:#003060;fill-opacity:1;fill-rule:nonzero;stroke:none"
         id="path3549"
         inkscape:connector-curvature="0" />
    </g>
    <g
       id="g3551"
       transform="matrix(0.84326434,0,0,-0.84326434,328.60478,1029.0945)">
      <path
         d="m 0,0 0,-3.338 -2.967,0 0,3.338 -5.407,6.177 3.652,0 3.224,-3.923 3.196,3.923 3.638,0 L 0,0 Z m -14.579,3.795 -4.194,0 0,-7.133 -2.924,0 0,7.133 -4.265,0 0,2.382 11.383,0 0,-2.382 z m -18.203,-7.133 -2.925,0 0,9.515 2.925,0 0,-9.515 z m -11.483,3.502 c 0.237,-0.043 0.445,-0.126 0.62,-0.249 0.177,-0.124 0.315,-0.303 0.414,-0.535 0.1,-0.234 0.15,-0.569 0.15,-1.006 l 0,-1.712 -2.925,0 0,1.255 c 0,0.409 -0.083,0.711 -0.249,0.906 -0.167,0.195 -0.502,0.293 -1.006,0.293 l -4.808,0 0,-2.454 -2.924,0 0,9.515 8.845,0 c 0.59,0 1.087,-0.055 1.49,-0.164 0.404,-0.11 0.733,-0.283 0.985,-0.521 0.251,-0.238 0.432,-0.547 0.542,-0.927 0.109,-0.38 0.164,-0.846 0.164,-1.398 0,-0.57 -0.046,-1.022 -0.136,-1.355 -0.09,-0.333 -0.223,-0.594 -0.399,-0.785 -0.176,-0.19 -0.392,-0.333 -0.649,-0.428 -0.257,-0.095 -0.547,-0.19 -0.87,-0.285 0.266,-0.057 0.518,-0.107 0.756,-0.15 m -18.232,0.022 c 0,-0.923 -0.157,-1.65 -0.471,-2.183 -0.314,-0.533 -0.827,-0.918 -1.54,-1.156 -0.409,-0.133 -0.904,-0.213 -1.484,-0.242 -0.58,-0.029 -1.246,-0.043 -1.997,-0.043 -0.79,0 -1.505,0.003 -2.147,0.007 -0.642,0.005 -1.212,0.038 -1.712,0.1 -0.499,0.062 -0.932,0.167 -1.298,0.314 -0.366,0.147 -0.669,0.361 -0.906,0.642 -0.238,0.28 -0.413,0.639 -0.528,1.077 -0.114,0.438 -0.171,0.979 -0.171,1.626 l 0,5.849 2.924,0 0,-4.993 c 0,-0.399 0.012,-0.73 0.036,-0.991 0.024,-0.262 0.074,-0.478 0.15,-0.65 0.076,-0.171 0.188,-0.299 0.335,-0.384 0.147,-0.086 0.345,-0.148 0.592,-0.186 0.247,-0.038 0.551,-0.059 0.914,-0.064 0.361,-0.005 0.798,-0.007 1.312,-0.007 l 1.012,0 c 0.295,0 0.554,0.012 0.778,0.035 0.223,0.024 0.413,0.067 0.57,0.129 0.158,0.062 0.288,0.159 0.393,0.292 0.161,0.191 0.254,0.428 0.278,0.714 0.024,0.285 0.035,0.641 0.035,1.07 l 0,5.035 2.925,0 0,-5.991 z M -81.89,-1.398 c -0.063,-0.371 -0.169,-0.685 -0.321,-0.941 -0.152,-0.257 -0.357,-0.462 -0.614,-0.614 -0.257,-0.152 -0.575,-0.247 -0.956,-0.285 -0.618,-0.067 -1.2,-0.116 -1.747,-0.15 -0.547,-0.033 -1.048,-0.05 -1.505,-0.05 -1.493,0 -2.886,0.043 -4.18,0.129 -0.504,0.028 -0.932,0.137 -1.283,0.328 -0.353,0.19 -0.638,0.468 -0.857,0.834 -0.218,0.366 -0.378,0.825 -0.477,1.377 -0.1,0.551 -0.15,1.212 -0.15,1.983 0,0.485 0.004,0.929 0.014,1.334 0.009,0.403 0.045,0.775 0.107,1.112 0.062,0.338 0.157,0.647 0.285,0.927 0.128,0.281 0.312,0.535 0.55,0.764 0.237,0.228 0.515,0.404 0.834,0.527 0.318,0.124 0.692,0.215 1.12,0.271 0.428,0.058 0.913,0.093 1.455,0.107 0.542,0.015 1.15,0.022 1.826,0.022 1.17,0 2.133,-0.024 2.889,-0.071 0.756,-0.048 1.353,-0.181 1.79,-0.4 0.437,-0.219 0.742,-0.561 0.913,-1.027 0.172,-0.466 0.261,-1.118 0.271,-1.954 l -2.795,0 c -0.011,0.294 -0.053,0.518 -0.129,0.67 -0.076,0.152 -0.219,0.262 -0.428,0.329 -0.21,0.066 -0.506,0.102 -0.892,0.106 -0.385,0.005 -0.891,0.007 -1.519,0.007 -0.713,0 -1.289,-0.007 -1.727,-0.021 -0.437,-0.014 -0.779,-0.083 -1.027,-0.207 -0.247,-0.124 -0.413,-0.33 -0.499,-0.62 -0.085,-0.291 -0.128,-0.711 -0.128,-1.263 0,-0.704 0.021,-1.248 0.064,-1.633 0.043,-0.385 0.171,-0.67 0.385,-0.856 0.214,-0.186 0.545,-0.295 0.992,-0.328 0.447,-0.034 1.07,-0.05 1.868,-0.05 l 1.498,0 c 0.4,0 0.716,0.038 0.949,0.114 0.233,0.076 0.399,0.207 0.5,0.392 0.099,0.185 0.149,0.464 0.149,0.834 l 2.853,0 c 0,-0.076 0.002,-0.144 0.007,-0.206 0.006,-0.062 0.007,-0.131 0.007,-0.207 0,-0.485 -0.031,-0.913 -0.092,-1.284 m -19.052,5.435 -7.747,0 0,-1.654 7.233,0 0,-1.884 -7.233,0 0,-1.697 7.747,0 0,-2.14 -10.613,0 0,9.515 10.613,0 0,-2.14 z m -17.603,-5.677 c -0.095,-0.343 -0.245,-0.626 -0.449,-0.849 -0.205,-0.224 -0.464,-0.397 -0.778,-0.521 -0.313,-0.123 -0.69,-0.209 -1.127,-0.256 -0.257,-0.029 -0.751,-0.062 -1.484,-0.1 -0.732,-0.038 -1.668,-0.058 -2.81,-0.058 -1.122,0 -2.038,0.034 -2.746,0.1 -0.708,0.067 -1.224,0.214 -1.548,0.442 -0.228,0.162 -0.397,0.336 -0.506,0.521 -0.109,0.186 -0.186,0.383 -0.228,0.592 -0.043,0.209 -0.065,0.435 -0.065,0.678 l 0,0.792 2.868,0 0,-0.329 c 0,-0.114 0.023,-0.216 0.071,-0.306 0.048,-0.091 0.133,-0.171 0.257,-0.243 0.124,-0.071 0.313,-0.116 0.57,-0.135 0.124,-0.01 0.355,-0.019 0.693,-0.028 0.337,-0.01 0.762,-0.015 1.277,-0.015 0.664,0 1.21,0.005 1.633,0.015 0.423,0.009 0.753,0.042 0.991,0.099 0.237,0.057 0.4,0.143 0.485,0.257 0.086,0.114 0.129,0.28 0.129,0.499 0,0.209 -0.043,0.373 -0.129,0.493 -0.085,0.118 -0.209,0.204 -0.371,0.256 -0.162,0.052 -0.354,0.083 -0.577,0.093 -0.225,0.009 -0.469,0.014 -0.736,0.014 -0.931,0.01 -1.759,0.012 -2.482,0.007 -0.722,-0.005 -1.35,0.012 -1.882,0.05 -0.533,0.038 -0.983,0.105 -1.348,0.2 -0.366,0.095 -0.662,0.247 -0.885,0.456 -0.223,0.209 -0.386,0.485 -0.485,0.828 -0.1,0.342 -0.15,0.775 -0.15,1.298 0,0.466 0.04,0.87 0.122,1.212 0.08,0.343 0.215,0.63 0.406,0.863 0.19,0.234 0.44,0.414 0.749,0.542 0.309,0.129 0.692,0.222 1.148,0.279 0.305,0.037 0.797,0.076 1.477,0.114 0.679,0.038 1.533,0.057 2.56,0.057 0.542,0 1.03,-0.002 1.463,-0.007 0.432,-0.005 0.818,-0.026 1.155,-0.064 0.338,-0.038 0.635,-0.093 0.891,-0.165 0.258,-0.071 0.481,-0.178 0.671,-0.32 0.209,-0.152 0.373,-0.314 0.493,-0.485 0.118,-0.171 0.206,-0.357 0.263,-0.557 0.058,-0.2 0.095,-0.416 0.115,-0.649 0.018,-0.233 0.028,-0.487 0.028,-0.763 l -2.839,0 c -0.009,0.219 -0.048,0.392 -0.114,0.521 -0.067,0.128 -0.183,0.223 -0.35,0.285 -0.166,0.062 -0.385,0.102 -0.656,0.121 -0.271,0.019 -0.621,0.028 -1.049,0.028 l -0.184,0 c -0.048,0 -0.11,-0.004 -0.186,-0.014 -0.618,-0.028 -1.137,-0.042 -1.555,-0.042 -0.419,0 -0.756,-0.022 -1.012,-0.065 -0.258,-0.042 -0.443,-0.121 -0.557,-0.235 -0.114,-0.114 -0.171,-0.304 -0.171,-0.571 0,-0.237 0.085,-0.416 0.257,-0.534 0.17,-0.12 0.408,-0.184 0.712,-0.193 0.428,-0.01 0.835,-0.019 1.22,-0.029 0.386,-0.009 0.745,-0.014 1.077,-0.014 0.2,0 0.407,0.002 0.621,0.007 0.214,0.005 0.416,0.007 0.606,0.007 0.79,0 1.474,-0.021 2.054,-0.063 0.581,-0.044 1.058,-0.16 1.434,-0.35 0.376,-0.191 0.654,-0.481 0.834,-0.871 0.181,-0.389 0.272,-0.936 0.272,-1.64 0,-0.495 -0.048,-0.913 -0.143,-1.255 m -27.119,-1.698 -9.473,0 0,9.515 2.925,0 0,-7.147 6.548,0 0,-2.368 z m -19.529,0 -0.898,1.726 -6.149,0 -0.941,-1.726 -3.224,0 5.306,9.515 3.909,0 5.192,-9.515 -3.195,0 z m -18.045,0 -4.608,0 -5.72,7.147 0,-7.147 -2.74,0 0,9.515 4.608,0 5.721,-7.133 0,7.133 2.739,0 0,-9.515 z m -20.315,2.475 c -0.085,-0.48 -0.232,-0.882 -0.441,-1.205 -0.21,-0.324 -0.488,-0.576 -0.835,-0.756 -0.347,-0.181 -0.782,-0.317 -1.305,-0.407 -0.524,-0.091 -1.139,-0.148 -1.848,-0.171 -0.708,-0.024 -1.533,-0.036 -2.475,-0.036 -1.065,0 -1.978,0.031 -2.739,0.093 -0.761,0.062 -1.383,0.223 -1.868,0.485 -0.485,0.261 -0.842,0.656 -1.07,1.184 -0.229,0.528 -0.342,1.258 -0.342,2.19 0,0.903 0.011,1.68 0.035,2.332 0.024,0.651 0.114,1.201 0.271,1.648 0.157,0.447 0.404,0.801 0.742,1.062 0.337,0.262 0.82,0.45 1.448,0.564 0.428,0.076 1.205,0.121 2.332,0.135 1.128,0.015 2.604,0.022 4.43,0.022 0.599,0 1.117,-0.052 1.555,-0.157 0.437,-0.105 0.806,-0.269 1.105,-0.492 0.3,-0.224 0.535,-0.516 0.706,-0.877 0.172,-0.362 0.29,-0.799 0.357,-1.313 0.038,-0.266 0.06,-0.613 0.064,-1.041 0.005,-0.428 0.007,-0.928 0.007,-1.498 0,-0.695 -0.042,-1.282 -0.129,-1.762 m -20,-2.475 -2.924,0 0,9.515 2.924,0 0,-9.515 z m -9.785,7.133 -4.194,0 0,-7.133 -2.925,0 0,7.133 -4.265,0 0,2.382 11.384,0 0,-2.382 z m -18.346,-7.133 -0.898,1.726 -6.149,0 -0.941,-1.726 -3.224,0 5.306,9.515 3.909,0 5.192,-9.515 -3.195,0 z m -18.045,0 -4.608,0 -5.721,7.147 0,-7.147 -2.739,0 0,9.515 4.608,0 5.721,-7.133 0,7.133 2.739,0 0,-9.515 z m -20.584,-2.168 302.281,0 0,13.893 -302.281,0 0,-13.893 z"
         style="fill:#003060;fill-opacity:1;fill-rule:nonzero;stroke:none"
         id="path3553"
         inkscape:connector-curvature="0" />
    </g>
    <g
       id="g3555"
       transform="matrix(0.84326434,0,0,-0.84326434,111.28038,1028.7937)">
      <path
         d="M 0,0 4.079,0 2.054,3.766 0,0 Z"
         style="fill:#003060;fill-opacity:1;fill-rule:nonzero;stroke:none"
         id="path3557"
         inkscape:connector-curvature="0" />
    </g>
  </g>
</svg>
