<?xml version="1.0" encoding="utf-8"?>
<!-- Generator: Adobe Illustrator 19.0.1, SVG Export Plug-In . SVG Version: 6.00 Build 0)  -->
<!DOCTYPE svg PUBLIC "-//W3C//DTD SVG 1.1//EN" "http://www.w3.org/Graphics/SVG/1.1/DTD/svg11.dtd">
<svg version="1.1" id="Layer_1" xmlns="http://www.w3.org/2000/svg" xmlns:xlink="http://www.w3.org/1999/xlink" x="0px" y="0px"
	 viewBox="0 0 289.2 126.9" style="enable-background:new 0 0 289.2 126.9;" xml:space="preserve">
<style type="text/css">
	.st0{fill:#58595B;}
	.st1{fill:#00A89D;}
	.st2{fill:#006C66;}
	.st3{fill:#8497A2;}
	.st4{fill:#FFFFFF;}
</style>
<g>
	<g>
		<g>
			<path class="st0" d="M111,117.5l-1.2,0.4c-0.8-0.8-1.9-1.2-3.3-1.2c-1.1,0-1.9,0.3-2.6,0.8c-0.7,0.5-1,1.2-1,2.1
				c0,0.9,0.3,1.6,1,2.1c0.7,0.5,1.6,0.8,2.7,0.8c1.4,0,2.4-0.4,3.2-1.3l1.1,0.6c-0.6,0.6-1.2,1.1-1.9,1.4c-0.7,0.3-1.5,0.4-2.5,0.4
				c-1.4,0-2.5-0.3-3.4-1c-1-0.8-1.5-1.8-1.5-3.1c0-1.2,0.5-2.3,1.6-3c0.9-0.7,2-1,3.4-1C108.5,115.5,110,116.1,111,117.5z"/>
			<path class="st0" d="M126.1,123.4h-1.3V120h-6.2v3.4h-1.3v-7.7h1.3v3.1h6.2v-3.1h1.3V123.4z"/>
			<path class="st0" d="M141.6,120.9c0,0.8-0.4,1.4-1.2,1.9c-0.8,0.5-1.9,0.8-3.2,0.8c-1.3,0-2.4-0.3-3.2-0.8
				c-0.8-0.5-1.2-1.2-1.2-1.9v-5.2h1.3v4.9c0,0.6,0.3,1.1,0.8,1.4c0.5,0.3,1.3,0.5,2.3,0.5c1,0,1.8-0.2,2.3-0.5
				c0.5-0.3,0.8-0.8,0.8-1.4v-4.9h1.3V120.9z"/>
			<path class="st0" d="M157.1,123.4h-1.5l-2.1-2.9h-3.9v2.9h-1.3v-7.7h6.1c0.8,0,1.4,0.2,1.9,0.7c0.5,0.4,0.7,1,0.7,1.8
				c0,0.7-0.2,1.2-0.6,1.6c-0.3,0.4-0.8,0.6-1.4,0.7L157.1,123.4z M154.2,119.3c1,0,1.5-0.4,1.5-1.2c0-0.9-0.5-1.3-1.6-1.3h-4.5v2.5
				H154.2z"/>
			<path class="st0" d="M172.3,117.5l-1.2,0.4c-0.8-0.8-1.9-1.2-3.3-1.2c-1.1,0-1.9,0.3-2.6,0.8c-0.7,0.5-1,1.2-1,2.1
				c0,0.9,0.3,1.6,1,2.1c0.7,0.5,1.6,0.8,2.7,0.8c1.4,0,2.4-0.4,3.2-1.3l1.1,0.6c-0.6,0.6-1.2,1.1-1.9,1.4c-0.7,0.3-1.5,0.4-2.5,0.4
				c-1.4,0-2.5-0.3-3.4-1c-1-0.8-1.5-1.8-1.5-3.1c0-1.2,0.5-2.3,1.6-3c0.9-0.7,2-1,3.4-1C169.8,115.5,171.3,116.1,172.3,117.5z"/>
			<path class="st0" d="M187.4,123.4h-1.3V120H180v3.4h-1.3v-7.7h1.3v3.1h6.2v-3.1h1.3V123.4z"/>
		</g>
	</g>
	<g>
		<rect x="56.8" y="117.7" width="36.2" height="0.8"/>
	</g>
	<g>
		<rect x="197.1" y="117.7" width="36.2" height="0.8"/>
	</g>
</g>
<g>
	<path class="st0" d="M30.8,81.1c-4.5-5.2-9.2-11.3-10.6-12.9c-0.1-0.2-0.4-0.4-0.4,0.2v30c0,0.6-0.3,0.6-0.5,0.6h-3
		c-0.2,0-0.4,0-0.4-0.5v-37c0-0.4,0.1-0.5,0.4-0.5l2.4-0.1c0.4,0,0.5-0.1,0.8,0.3c0,0,7.4,9.4,12,14.5c0.2,0.2,0.3,0.4,0.5,0.4
		c0.3,0,0.4-0.1,0.6-0.4c4.6-5.1,12-14.5,12-14.5c0.2-0.3,0.1-0.4,0.8-0.3l2.3,0.1C48,61,48,61.3,48,61.6v36.8
		c0,0.4-0.2,0.6-0.5,0.6h-3.1c-0.3,0-0.4-0.2-0.4-0.5V68.4c0-0.5-0.2-0.4-0.4-0.2c-1.4,1.5-6.1,7.7-10.6,12.9
		c-0.1,0.2-0.4,0.5-1.1,0.5C31.2,81.6,30.9,81.3,30.8,81.1z"/>
	<path class="st0" d="M61.5,61c0.5,0,0.7,0.2,0.7,0.7v36.4c0,0.9-0.1,0.9-0.7,0.9h-2.7c-0.4,0-0.6-0.1-0.6-0.6V61.8
		c0-0.5,0.2-0.9,0.6-0.9H61.5z"/>
	<path class="st0" d="M72.4,97.9V62.4c0-1,0.5-1.4,1.3-1.4h17c7.9,0,16.8,4.7,16.8,18.6C107.5,94.1,98,99,90.6,99H73.2
		C72.8,99,72.4,98.6,72.4,97.9z M90.6,95.2c5.4,0,12.9-3.5,12.9-15.7c0-11.3-6.8-14.8-12.9-14.8c0,0-9.9,0-13.5,0
		c-0.5,0-0.9,0-0.9,0.8c0,5.1,0,29,0,29c0,0.7,0.3,0.7,0.7,0.7C81.1,95.2,90.6,95.2,90.6,95.2z"/>
	<path class="st0" d="M121.5,65.2c0-0.3-0.2-0.7-0.5-0.7c0,0-7.6,0-9.2,0c-0.5,0-0.5-0.1-0.5-0.5v-2.6c0-0.4,0-0.4,0.4-0.4h23.5
		c0.4,0,0.5,0.1,0.5,0.4v2.7c0,0.3-0.1,0.4-0.5,0.4c-1.8,0-9.1,0-9.1,0c-0.5,0-0.5,0.4-0.5,0.7v33.2c0,0.6-0.1,0.6-0.5,0.6H122
		c-0.4,0-0.5-0.2-0.5-0.6V65.2z"/>
	<path class="st0" d="M180.7,79.9c0,11.1-9.5,20-20.9,20c-11.4,0-20.9-8.9-20.9-20c0-11.2,9.5-20,20.9-20
		C171.2,59.9,180.7,68.7,180.7,79.9z M143,79.9c0,8.7,7.4,16,16.8,16c9.4,0,16.9-7.3,16.9-16c0-8.7-7.5-16-16.9-16
		C150.4,63.9,143,71.2,143,79.9z"/>
	<path class="st0" d="M199.1,91.8c0.2,0.4,0.6,0.2,0.7,0l8-20.3c0.2-0.5,0.4-0.9,0.9-0.9h2.6c0.4,0,0.7,0.4,0.8,0.9l8,20.3
		c0.1,0.2,0.5,0.4,0.7,0L231.9,61c0.2-0.5,0.2-0.5,0.6-0.4l3.1,0.3c0.5,0.1,0.6,0.2,0.5,0.5l-13.4,37.1c-0.1,0.2-0.4,0.5-0.5,0.5h-3
		c-0.3,0-0.5-0.1-0.6-0.4l-8.4-21c-0.1-0.3-0.2-0.9-0.4-0.9c-0.2,0-0.2,0.2-0.4,0.6l-8.4,21.2c-0.1,0.2-0.3,0.4-0.6,0.4h-2.9
		c-0.2,0-0.5-0.2-0.5-0.5l-13.2-36.6c-0.2-0.4-0.1-1,0.3-1l3-0.3c0.5-0.1,0.7,0.4,0.8,0.7L199.1,91.8z"/>
	<path class="st0" d="M242.1,62.1c0-1,0.2-1.1,0.7-1.1l2-0.2c0.7-0.1,0.7-0.2,1.3,0.5l24.6,29.8c0.3,0.4,0.5,0.7,0.8,0.7
		c0.2,0,0.4-0.1,0.4-0.7V61.6c0-0.5,0.1-0.7,0.9-0.7h2.4c0.6,0,0.7,0.2,0.7,0.9v36.6c0,0.8-0.2,0.9-0.8,0.8l-1.8-0.1
		c-0.5-0.1-0.7,0.1-1.3-0.7L247,68.5c-0.2-0.3-0.5-0.7-0.7-0.7c-0.4,0-0.4,0.3-0.4,1v29.6c0,0.4-0.2,0.6-0.6,0.6h-2.8
		c-0.4,0-0.5-0.2-0.5-0.6V62.1z"/>
</g>
<path class="st1" d="M128.3,23.1c0-7.3,3.8-13.7,9.5-17.4c-1.9-0.7-4-1.1-6.2-1.1c-10.2,0-18.5,8.3-18.5,18.5
	c0,10.2,8.3,18.5,18.5,18.5c2.2,0,4.2-0.4,6.2-1.1C132,36.8,128.3,30.4,128.3,23.1z"/>
<path class="st2" d="M140.3,39.4c5.8-3.1,9.8-9.2,9.8-16.3c0-7-4-13.2-9.8-16.3c-5.8,3.1-9.8,9.2-9.8,16.3
	C130.5,30.2,134.5,36.3,140.3,39.4z"/>
<path class="st3" d="M149,4.6c-2.2,0-4.2,0.4-6.2,1.1c5.7,3.7,9.5,10.1,9.5,17.4c0,7.3-3.8,13.7-9.5,17.4c1.9,0.7,4,1.1,6.2,1.1
	c10.2,0,18.5-8.3,18.5-18.5C167.5,12.9,159.2,4.6,149,4.6z"/>
<g>
	<g>
		<path class="st4" d="M135.5,18.6h2.3l2.5,4l2.5-4h2.3v9.5H143v-6.2l-2.7,4.1h-0.1l-2.6-4v6.2h-2.1V18.6z"/>
	</g>
</g>
</svg>
