<?xml version="1.0" encoding="utf-8"?>
<!-- Generator: Adobe Illustrator 19.0.1, SVG Export Plug-In . SVG Version: 6.00 Build 0)  -->
<!DOCTYPE svg PUBLIC "-//W3C//DTD SVG 1.1//EN" "http://www.w3.org/Graphics/SVG/1.1/DTD/svg11.dtd">
<svg version="1.1" id="Layer_1" xmlns="http://www.w3.org/2000/svg" xmlns:xlink="http://www.w3.org/1999/xlink" x="0px" y="0px"
	 viewBox="-34 45.1 289.2 126.9" style="enable-background:new -34 45.1 289.2 126.9;" xml:space="preserve">
<style type="text/css">
	.st0{fill:#FFFFFF;}
</style>
<g>
	<g>
		<g>
			<path class="st0" d="M75.7,161.9l-1.2,0.4c-0.8-0.8-1.9-1.2-3.3-1.2c-1.1,0-1.9,0.3-2.6,0.8s-1,1.2-1,2.1c0,0.9,0.3,1.6,1,2.1
				s1.6,0.8,2.7,0.8c1.4,0,2.4-0.4,3.2-1.3l1.1,0.6c-0.6,0.6-1.2,1.1-1.9,1.4c-0.7,0.3-1.5,0.4-2.5,0.4c-1.4,0-2.5-0.3-3.4-1
				c-1-0.8-1.5-1.8-1.5-3.1c0-1.2,0.5-2.3,1.6-3c0.9-0.7,2-1,3.4-1C73.2,159.9,74.7,160.5,75.7,161.9z"/>
			<path class="st0" d="M90.8,167.8h-1.3v-3.4h-6.2v3.4H82v-7.7h1.3v3.1h6.2v-3.1h1.3V167.8z"/>
			<path class="st0" d="M106.3,165.3c0,0.8-0.4,1.4-1.2,1.9c-0.8,0.5-1.9,0.8-3.2,0.8c-1.3,0-2.4-0.3-3.2-0.8
				c-0.8-0.5-1.2-1.2-1.2-1.9v-5.2h1.3v4.9c0,0.6,0.3,1.1,0.8,1.4s1.3,0.5,2.3,0.5s1.8-0.2,2.3-0.5s0.8-0.8,0.8-1.4v-4.9h1.3
				L106.3,165.3L106.3,165.3z"/>
			<path class="st0" d="M121.8,167.8h-1.5l-2.1-2.9h-3.9v2.9H113v-7.7h6.1c0.8,0,1.4,0.2,1.9,0.7c0.5,0.4,0.7,1,0.7,1.8
				c0,0.7-0.2,1.2-0.6,1.6c-0.3,0.4-0.8,0.6-1.4,0.7L121.8,167.8z M118.9,163.7c1,0,1.5-0.4,1.5-1.2c0-0.9-0.5-1.3-1.6-1.3h-4.5v2.5
				H118.9z"/>
			<path class="st0" d="M137,161.9l-1.2,0.4c-0.8-0.8-1.9-1.2-3.3-1.2c-1.1,0-1.9,0.3-2.6,0.8c-0.7,0.5-1,1.2-1,2.1
				c0,0.9,0.3,1.6,1,2.1s1.6,0.8,2.7,0.8c1.4,0,2.4-0.4,3.2-1.3l1.1,0.6c-0.6,0.6-1.2,1.1-1.9,1.4s-1.5,0.4-2.5,0.4
				c-1.4,0-2.5-0.3-3.4-1c-1-0.8-1.5-1.8-1.5-3.1c0-1.2,0.5-2.3,1.6-3c0.9-0.7,2-1,3.4-1C134.5,159.9,136,160.5,137,161.9z"/>
			<path class="st0" d="M152.1,167.8h-1.3v-3.4h-6.1v3.4h-1.3v-7.7h1.3v3.1h6.2v-3.1h1.3v7.7H152.1z"/>
		</g>
	</g>
	<g>
		<rect x="21.5" y="162.1" class="st0" width="36.2" height="0.8"/>
	</g>
	<g>
		<rect x="161.8" y="162.1" class="st0" width="36.2" height="0.8"/>
	</g>
</g>
<g>
	<path class="st0" d="M-4.5,125.5c-4.5-5.2-9.2-11.3-10.6-12.9c-0.1-0.2-0.4-0.4-0.4,0.2v30c0,0.6-0.3,0.6-0.5,0.6h-3
		c-0.2,0-0.4,0-0.4-0.5v-37c0-0.4,0.1-0.5,0.4-0.5l2.4-0.1c0.4,0,0.5-0.1,0.8,0.3c0,0,7.4,9.4,12,14.5c0.2,0.2,0.3,0.4,0.5,0.4
		c0.3,0,0.4-0.1,0.6-0.4c4.6-5.1,12-14.5,12-14.5c0.2-0.3,0.1-0.4,0.8-0.3l2.3,0.1c0.3,0,0.3,0.3,0.3,0.6v36.8
		c0,0.4-0.2,0.6-0.5,0.6H9.1c-0.3,0-0.4-0.2-0.4-0.5v-30.1c0-0.5-0.2-0.4-0.4-0.2c-1.4,1.5-6.1,7.7-10.6,12.9
		c-0.1,0.2-0.4,0.5-1.1,0.5S-4.4,125.7-4.5,125.5z"/>
	<path class="st0" d="M26.2,105.4c0.5,0,0.7,0.2,0.7,0.7v36.4c0,0.9-0.1,0.9-0.7,0.9h-2.7c-0.4,0-0.6-0.1-0.6-0.6v-36.6
		c0-0.5,0.2-0.9,0.6-0.9L26.2,105.4L26.2,105.4z"/>
	<path class="st0" d="M37.1,142.3v-35.5c0-1,0.5-1.4,1.3-1.4h17c7.9,0,16.8,4.7,16.8,18.6c0,14.5-9.5,19.4-16.9,19.4H37.9
		C37.5,143.4,37.1,143,37.1,142.3z M55.3,139.6c5.4,0,12.9-3.5,12.9-15.7c0-11.3-6.8-14.8-12.9-14.8c0,0-9.9,0-13.5,0
		c-0.5,0-0.9,0-0.9,0.8c0,5.1,0,29,0,29c0,0.7,0.3,0.7,0.7,0.7C45.8,139.6,55.3,139.6,55.3,139.6z"/>
	<path class="st0" d="M86.2,109.6c0-0.3-0.2-0.7-0.5-0.7c0,0-7.6,0-9.2,0c-0.5,0-0.5-0.1-0.5-0.5v-2.6c0-0.4,0-0.4,0.4-0.4h23.5
		c0.4,0,0.5,0.1,0.5,0.4v2.7c0,0.3-0.1,0.4-0.5,0.4c-1.8,0-9.1,0-9.1,0c-0.5,0-0.5,0.4-0.5,0.7v33.2c0,0.6-0.1,0.6-0.5,0.6h-3.1
		c-0.4,0-0.5-0.2-0.5-0.6V109.6z"/>
	<path class="st0" d="M145.4,124.3c0,11.1-9.5,20-20.9,20c-11.4,0-20.9-8.9-20.9-20c0-11.2,9.5-20,20.9-20
		C135.9,104.3,145.4,113.1,145.4,124.3z M107.7,124.3c0,8.7,7.4,16,16.8,16c9.4,0,16.9-7.3,16.9-16s-7.5-16-16.9-16
		C115.1,108.3,107.7,115.6,107.7,124.3z"/>
	<path class="st0" d="M163.8,136.2c0.2,0.4,0.6,0.2,0.7,0l8-20.3c0.2-0.5,0.4-0.9,0.9-0.9h2.6c0.4,0,0.7,0.4,0.8,0.9l8,20.3
		c0.1,0.2,0.5,0.4,0.7,0l11.1-30.8c0.2-0.5,0.2-0.5,0.6-0.4l3.1,0.3c0.5,0.1,0.6,0.2,0.5,0.5l-13.4,37.1c-0.1,0.2-0.4,0.5-0.5,0.5
		h-3c-0.3,0-0.5-0.1-0.6-0.4l-8.4-21c-0.1-0.3-0.2-0.9-0.4-0.9s-0.2,0.2-0.4,0.6l-8.4,21.2c-0.1,0.2-0.3,0.4-0.6,0.4h-2.9
		c-0.2,0-0.5-0.2-0.5-0.5l-13.2-36.6c-0.2-0.4-0.1-1,0.3-1l3-0.3c0.5-0.1,0.7,0.4,0.8,0.7L163.8,136.2z"/>
	<path class="st0" d="M206.8,106.5c0-1,0.2-1.1,0.7-1.1l2-0.2c0.7-0.1,0.7-0.2,1.3,0.5l24.6,29.8c0.3,0.4,0.5,0.7,0.8,0.7
		c0.2,0,0.4-0.1,0.4-0.7V106c0-0.5,0.1-0.7,0.9-0.7h2.4c0.6,0,0.7,0.2,0.7,0.9v36.6c0,0.8-0.2,0.9-0.8,0.8l-1.8-0.1
		c-0.5-0.1-0.7,0.1-1.3-0.7l-25-29.9c-0.2-0.3-0.5-0.7-0.7-0.7c-0.4,0-0.4,0.3-0.4,1v29.6c0,0.4-0.2,0.6-0.6,0.6h-2.8
		c-0.4,0-0.5-0.2-0.5-0.6v-36.3H206.8z"/>
</g>
<path class="st0" d="M93,67.5c0-7.3,3.8-13.7,9.5-17.4c-1.9-0.7-4-1.1-6.2-1.1c-10.2,0-18.5,8.3-18.5,18.5S86.1,86,96.3,86
	c2.2,0,4.2-0.4,6.2-1.1C96.7,81.2,93,74.8,93,67.5z"/>
<path class="st0" d="M113.7,49c-2.2,0-4.2,0.4-6.2,1.1c5.7,3.7,9.5,10.1,9.5,17.4s-3.8,13.7-9.5,17.4c1.9,0.7,4,1.1,6.2,1.1
	c10.2,0,18.5-8.3,18.5-18.5S123.9,49,113.7,49z"/>
<path class="st0" d="M105,51.2c-5.8,3.1-9.8,9.2-9.8,16.3c0,7.1,4,13.2,9.8,16.3c5.8-3.1,9.8-9.2,9.8-16.3
	C114.8,60.5,110.8,54.3,105,51.2z M107.7,72.5v-6.2l-2.7,4.1h-0.1l-2.6-4v6.2h-2.1V63h2.3l2.5,4l2.5-4h2.3v9.5H107.7z"/>
</svg>
